<svg xmlns="http://www.w3.org/2000/svg" width="400" height="400" viewBox="0 0 400 400" fill="none">
  <defs>
    <pattern id="g" width="25" height="25" patternUnits="userSpaceOnUse">
      <path d="M25 0H0V25" stroke="#12151a" stroke-opacity=".05" stroke-width="1"/>
    </pattern>
  </defs>
  <rect width="400" height="400" fill="#f0e9dd"/>
  <rect width="400" height="400" fill="url(#g)"/>
  <rect x="24" y="24" width="14" height="2" fill="#d97b24"/>
  <rect x="24" y="24" width="2" height="14" fill="#d97b24"/>
  <rect x="362" y="374" width="14" height="2" fill="#12151a" fill-opacity=".25"/>
  <rect x="374" y="362" width="2" height="14" fill="#12151a" fill-opacity=".25"/>
  
  <path d="M60 264l84-152h218l-84 152H60Z" fill="#8a4a3c"/>
  <path d="M60 264l84-152h218l-84 152H60Z" stroke="#12151a" stroke-width="5" stroke-linejoin="round"/>
  <path d="M104 264l84-152M148 264l84-152M192 264l84-152M236 264l84-152" stroke="#12151a" stroke-width="4" stroke-opacity=".55"/>
  <path d="M60 264v34l278 0v-34" stroke="#12151a" stroke-width="5" stroke-linejoin="round" fill="#12151a" fill-opacity=".12"/>
  <rect x="60" y="322" width="278" height="4" fill="#12151a" fill-opacity=".1"/>
</svg>